HIERARCHY
ROOT Hips
{
	OFFSET 0.000000 0.000000 0.000000
	CHANNELS 6 Xposition Yposition Zposition Zrotation Yrotation Xrotation
	JOINT LHipJoint
	{
		OFFSET 0.000000 0.000000 0.000000
		CHANNELS 3 Zrotation Yrotation Xrotation
		JOINT LeftUpLeg
		{
			OFFSET 1.363060 -1.794630 0.839290
			CHANNELS 3 Zrotation Yrotation Xrotation
			JOINT LeftLeg
			{
				OFFSET 2.448110 -6.726130 0.000000
				CHANNELS 3 Zrotation Yrotation Xrotation
				JOINT LeftFoot
				{
					OFFSET 2.562200 -7.039590 0.000000
					CHANNELS 3 Zrotation Yrotation Xrotation
					JOINT LeftToeBase
					{
						OFFSET 0.157640 -0.433110 2.322550
						CHANNELS 3 Zrotation Yrotation Xrotation
						End Site
						{
							OFFSET 0.000000 0.000000 0.000000
						}
					}
				}
			}
		}
	}
	JOINT RHipJoint
	{
		OFFSET 0.000000 0.000000 0.000000
		CHANNELS 3 Zrotation Yrotation Xrotation
		JOINT RightUpLeg
		{
			OFFSET -1.305520 -1.794630 0.839290
			CHANNELS 3 Zrotation Yrotation Xrotation
			JOINT RightLeg
			{
				OFFSET -2.542530 -6.985550 0.000000
				CHANNELS 3 Zrotation Yrotation Xrotation
				JOINT RightFoot
				{
					OFFSET -2.568260 -7.056230 0.000000
					CHANNELS 3 Zrotation Yrotation Xrotation
					JOINT RightToeBase
					{
						OFFSET -0.164730 -0.452590 2.363150
						CHANNELS 3 Zrotation Yrotation Xrotation
						End Site
						{
							OFFSET 0.000000 0.000000 0.000000
						}
					}
				}
			}
		}
	}
	JOINT LowerBack
	{
		OFFSET 0.000000 0.000000 0.000000
		CHANNELS 3 Zrotation Yrotation Xrotation
		JOINT Spine
		{
			OFFSET 0.028270 2.035590 -0.193380
			CHANNELS 3 Zrotation Yrotation Xrotation
			JOINT Spine1
			{
				OFFSET 0.056720 2.048850 -0.042750
				CHANNELS 3 Zrotation Yrotation Xrotation
				JOINT Neck
				{
					OFFSET 0.000000 0.000000 0.000000
					CHANNELS 3 Zrotation Yrotation Xrotation
					JOINT Neck1
					{
						OFFSET -0.054170 1.746240 0.172020
						CHANNELS 3 Zrotation Yrotation Xrotation
						JOINT Head
						{
							OFFSET 0.104070 1.761360 -0.123970
							CHANNELS 3 Zrotation Yrotation Xrotation
							End Site
							{
								OFFSET 0.000000 0.000000 0.000000
							}
						}
					}
				}
				JOINT LeftShoulder
				{
					OFFSET 0.000000 0.000000 0.000000
					CHANNELS 3 Zrotation Yrotation Xrotation
					JOINT LeftArm
					{
						OFFSET 3.362410 1.200890 -0.311210
						CHANNELS 3 Zrotation Yrotation Xrotation
						JOINT LeftForeArm
						{
							OFFSET 4.983000 -0.000000 -0.000000
							CHANNELS 3 Zrotation Yrotation Xrotation
							JOINT LeftHand
							{
								OFFSET 3.483560 -0.000000 -0.000000
								CHANNELS 3 Zrotation Yrotation Xrotation
								JOINT LeftFingerBase
								{
									OFFSET 0.000000 0.000000 0.000000
									CHANNELS 3 Zrotation Yrotation Xrotation
									JOINT LeftHandIndex1
									{
										OFFSET 0.715260 -0.000000 -0.000000
										CHANNELS 3 Zrotation Yrotation Xrotation
										End Site
										{
											OFFSET 0.000000 0.000000 0.000000
										}
									}
								}
								JOINT LThumb
								{
									OFFSET 0.000000 0.000000 0.000000
									CHANNELS 3 Zrotation Yrotation Xrotation
									End Site
									{
										OFFSET 0.000000 0.000000 0.000000
									}
								}
							}
						}
					}
				}
				JOINT RightShoulder
				{
					OFFSET 0.000000 0.000000 0.000000
					CHANNELS 3 Zrotation Yrotation Xrotation
					JOINT RightArm
					{
						OFFSET -3.136600 1.374050 -0.404650
						CHANNELS 3 Zrotation Yrotation Xrotation
						JOINT RightForeArm
						{
							OFFSET -5.241900 -0.000000 -0.000000
							CHANNELS 3 Zrotation Yrotation Xrotation
							JOINT RightHand
							{
								OFFSET -3.444170 -0.000000 -0.000000
								CHANNELS 3 Zrotation Yrotation Xrotation
								JOINT RightFingerBase
								{
									OFFSET 0.000000 0.000000 0.000000
									CHANNELS 3 Zrotation Yrotation Xrotation
									JOINT RightHandIndex1
									{
										OFFSET -0.622530 -0.000000 -0.000000
										CHANNELS 3 Zrotation Yrotation Xrotation
										End Site
										{
											OFFSET 0.000000 0.000000 0.000000
										}
									}
								}
								JOINT RThumb
								{
									OFFSET 0.000000 0.000000 0.000000
									CHANNELS 3 Zrotation Yrotation Xrotation
									End Site
									{
										OFFSET 0.000000 0.000000 0.000000
									}
								}
							}
						}
					}
				}
			}
		}
	}
}
MOTION
Frames: 8
Frame Time: 0.008333
-0.000440 0.004271 0.140578 0.227624 0.504050 -0.518352 -0.069969 -0.004518 -0.031904 0.019935 -0.473359 0.575971 -0.523922 -0.319758 -1.654995 -0.004103 0.075875 -0.235260 -0.061238 0.995023 2.741359 0.058984 -0.005497 0.035715 -0.029966 -0.875389 1.043436 0.035075 0.112494 -0.250821 -0.065422 -0.172876 -0.401961 -0.006608 0.090264 -0.248903 -0.366180 -0.197281 0.123554 0.032624 -0.178617 0.253613 0.213859 -0.086639 0.525895 0.090072 -0.113779 -0.500102 -0.089946 -0.127777 0.038464 -0.074394 -0.067668 0.109083 0.049588 0.051041 0.032867 -0.122064 -0.222077 -0.431527 -0.234745 0.382605 0.056531 -0.009911 0.002020 0.872591 -0.050090 0.257320 0.095632 0.000000 0.000000 0.000000 -0.027964 0.276631 -0.018820 0.003245 -0.021657 -0.030839 -0.206330 0.766031 0.455929 -0.710036 0.694231 -0.400707 0.018905 0.017665 -0.379495 -0.354143 0.007884 0.231736 -0.000000 0.000000 0.000000 -0.415626 -0.113095 0.176103
-1.160904 -1.228189 -5.101961 0.034855 -1.075034 -1.677336 -1.970308 0.132989 0.067488 -0.970942 -1.262660 -1.848987 -0.898618 -0.843246 -3.974206 -0.217135 0.474143 -0.553182 -0.045210 0.398090 3.309780 -0.167416 -0.098195 -0.220400 -0.332759 -0.805246 0.878691 0.011543 0.818251 -0.453218 0.093343 -0.576696 -0.729663 0.085252 -0.031820 -0.337381 -0.079177 -0.040012 0.186251 0.124948 0.045425 0.391486 0.327547 -0.036608 0.201680 0.034810 -0.271979 -0.715092 0.116446 -0.139631 0.252052 0.138270 -0.654402 -0.500754 -0.259030 -0.659083 -0.131502 0.150208 -0.124276 -2.856081 -0.927190 -0.274523 -0.234934 -0.145656 -0.026045 -2.123225 -0.945797 1.518444 -1.829448 -0.157476 0.000000 0.000000 3.868531 0.924161 -1.690106 0.220063 1.193679 -0.157664 0.952638 0.696250 -2.414009 0.894308 -1.470257 -0.897512 0.624013 0.143900 0.327211 5.728423 -2.825790 -0.765888 -0.040247 0.000000 0.000000 2.308531 -0.116339 3.017959
-1.792656 -2.203985 -7.667251 0.031927 -1.572788 -1.799233 -2.569535 0.801193 0.481243 -0.403719 -0.819870 -1.452875 -0.924612 -0.365570 -3.907613 -0.137139 1.697791 0.875610 0.242976 0.520084 5.427874 0.452546 0.056638 -0.162072 0.513589 -0.194996 1.314553 0.145617 1.645434 -0.703392 0.345225 -1.230493 -0.658260 0.231439 -0.069646 -0.018477 0.150850 0.098579 0.243683 0.185262 0.175491 0.352548 0.311881 0.016377 0.086519 0.213846 -0.236718 -0.765627 0.250883 -0.317783 0.069172 0.368746 -1.061125 -1.171778 -0.450146 -1.208593 -0.195394 2.513825 0.056639 -2.456464 -0.940875 -1.132590 -0.671581 -0.333204 -0.121190 -6.091606 -1.913315 0.511742 -4.887025 -0.257663 0.000000 0.000000 8.590298 1.171259 -2.795172 0.192828 1.933353 -0.264552 4.041318 0.965501 -3.274971 4.928074 -1.168576 0.609645 1.215676 0.318557 1.525244 18.299118 -1.085661 4.347067 0.081361 0.000000 0.000000 12.282128 4.692819 15.357611
-2.346168 -3.232204 -10.542101 -0.331096 -2.438314 -2.495817 -3.663157 0.754195 0.125573 -1.677037 -1.875528 -4.612563 -1.629224 -1.181268 -7.258195 -0.439521 1.210796 0.289539 0.203461 -0.138941 4.912801 0.174025 -0.126357 -0.533799 0.195277 -0.193806 0.829256 0.158765 2.167940 -1.364819 0.569323 -1.953694 -0.416329 0.357339 -0.162807 -0.353548 0.157632 0.248219 0.300309 0.171752 0.205632 0.348693 0.281801 0.081185 0.128649 0.145815 -0.318780 -1.227283 0.135770 -0.394966 -0.306620 0.517470 -1.430986 -2.290165 -0.906852 -2.096276 -0.356978 0.964677 -1.134877 -4.699080 -1.471151 -1.952204 -1.140966 -0.501167 -0.087792 -8.725081 -1.737374 1.849650 -7.181659 -0.216193 0.000000 0.000000 14.874588 1.935535 -4.132387 0.049426 2.380177 -0.391394 7.163345 0.684132 -4.073489 7.086272 -1.910710 -0.233623 1.348401 0.409233 1.221928 19.302477 -2.465991 0.866018 0.005063 0.000000 0.000000 13.751102 4.293892 15.322840
-1.880854 -3.463996 -8.732976 -0.980874 -2.095882 -2.018993 -3.821045 0.973163 0.245686 -0.526007 -1.226923 -3.427023 -1.734180 -0.717901 -7.361566 -0.183957 1.976234 1.288332 0.389785 0.241556 4.932351 0.274445 -0.170561 -0.589365 0.367619 -0.170171 0.052746 0.375607 2.299421 -2.284773 0.796359 -3.084879 -0.218091 0.399843 -0.568108 -0.787908 -0.019873 0.172690 -0.286537 0.001560 0.013803 0.024550 0.114016 0.040214 -0.367264 -0.213196 -0.745340 -1.965744 -0.032338 -0.835602 -0.495521 0.397345 -1.538397 -2.382137 -0.501255 -1.942003 -0.173108 2.232371 -2.374269 -2.532358 -1.125588 -2.557853 -1.399998 -0.497235 -0.144429 -9.830440 -1.924795 0.379000 -9.439601 -0.174684 0.000000 0.000000 17.943363 1.792252 -3.588572 -0.674325 2.133116 -0.304493 14.611074 0.776322 -0.519054 10.211704 -3.459907 -0.351781 1.347229 0.310366 -0.094615 10.350630 -8.204678 -4.947891 -0.134758 0.000000 0.000000 12.472234 2.881569 11.772634
-1.835771 -3.169013 -3.985502 -1.081631 -1.228130 -2.158991 -4.530316 0.885160 0.273086 -0.265003 -1.367215 -4.000453 -2.141440 -0.905640 -9.226935 -0.170794 2.428965 1.671660 0.480989 0.473148 4.748716 0.564307 -0.142573 -0.527279 0.592557 -0.199004 -0.828833 0.622106 2.479954 -2.712572 1.160026 -3.689117 0.431836 0.479566 -0.850277 -0.384988 -0.090831 0.098313 -0.758829 -0.044621 0.013697 -0.147864 0.059793 0.007830 -1.180102 -0.387542 -1.087515 -2.169328 0.233020 -0.946664 0.058486 0.546097 -1.673462 -2.247175 -0.145681 -1.786971 0.039106 3.608026 -3.946894 -0.995118 -0.243405 -1.978628 -1.215304 -0.316958 -0.252495 -9.781512 -1.962876 -1.122322 -8.767087 0.141336 0.000000 0.000000 20.906857 5.209000 1.145770 -0.555730 2.590885 -0.078236 23.668358 0.904206 1.959226 11.680097 -6.712928 -0.599414 1.470857 0.315030 -0.047389 13.799041 -12.344782 -5.031791 -0.123559 0.000000 0.000000 16.410442 4.738328 14.188561
-2.492156 -3.134643 -3.438561 -1.755060 -1.060330 -2.313808 -5.133524 0.808102 0.161166 -1.084615 -2.409314 -5.934352 -2.713407 -1.569527 -11.806788 -0.290294 2.547240 0.811554 0.445605 0.318450 3.874135 0.449623 -0.278944 -0.652424 0.555898 -0.311857 -1.360483 0.927415 2.699258 -3.545789 1.396606 -4.552935 1.043849 0.562114 -1.016078 0.374799 -0.137790 0.137273 -0.780078 -0.007777 0.104722 -0.299707 0.010549 0.001925 -1.802828 -0.264671 -1.217224 -2.320806 0.414447 -1.097278 0.242901 0.386106 -1.982862 -2.368663 -0.130306 -1.964997 0.045974 4.086020 -4.847162 -0.840920 -0.396290 -1.232237 -1.055263 -0.138565 -0.203491 -8.454335 -0.769960 2.495699 -5.998215 0.398625 0.000000 0.000000 24.879793 11.450202 6.307741 -0.304219 3.700358 -0.000057 28.205280 0.234548 2.354433 12.840990 -8.837362 -1.450937 1.551708 0.298206 -0.173526 15.785197 -16.574514 -6.798518 -0.174749 0.000000 0.000000 16.231594 4.222155 11.271497
-3.175288 -3.048526 -4.397144 -2.498279 -1.111937 -2.208727 -5.177045 1.096610 0.391114 -0.723335 -2.521088 -5.844713 -2.857945 -1.442662 -12.036893 -0.181861 3.708984 0.993276 0.602460 0.595214 4.555581 0.798921 -0.278749 -0.564538 1.249300 -0.134176 -1.300896 1.291596 3.052426 -4.149907 1.655167 -5.251565 1.887457 0.660821 -1.069312 1.250517 -0.187765 0.195689 -0.652111 0.062155 0.237639 -0.362022 0.009291 0.037793 -2.200381 0.016490 -1.230980 -2.434480 0.574711 -1.130920 0.523847 0.459528 -2.130954 -2.228477 0.092569 -1.904491 0.099996 6.670773 -4.616343 0.684228 -0.524892 -0.811458 -1.013577 -0.030393 -0.285722 -9.019018 -0.645407 3.926221 -4.195717 0.425949 0.000000 0.000000 23.389145 11.947618 5.934193 -0.628613 4.561806 -0.032500 30.211700 -0.387520 2.518477 14.685809 -9.676714 -2.115655 1.680295 0.325459 0.564513 26.235088 -16.833269 -3.144121 -0.101674 0.000000 0.000000 21.506210 7.291139 16.086502
